<svg width="64" height="64" viewBox="0 0 64 64" fill="none" xmlns="http://www.w3.org/2000/svg">
<path d="M10.176 39.272C10 39.272 9.808 39.224 9.6 39.128C9.408 39.016 9.2 38.896 8.976 38.768L1.176 34.184C0.984 34.056 0.84 33.896 0.744 33.704C0.648 33.496 0.6 33.288 0.6 33.08C0.6 32.856 0.648 32.648 0.744 32.456C0.84 32.248 0.984 32.088 1.176 31.976L8.976 27.488C9.184 27.36 9.376 27.264 9.552 27.2C9.744 27.12 9.92 27.08 10.08 27.08C10.4 27.08 10.696 27.24 10.968 27.56C11.256 27.864 11.4 28.184 11.4 28.52C11.4 28.68 11.352 28.84 11.256 29C11.176 29.144 11.048 29.272 10.872 29.384L2.544 34.208L2.376 31.808L10.848 36.872C11.04 36.984 11.176 37.128 11.256 37.304C11.336 37.464 11.376 37.632 11.376 37.808C11.376 38.192 11.24 38.536 10.968 38.84C10.712 39.128 10.448 39.272 10.176 39.272ZM20.9134 27.92C22.0654 27.92 22.9374 28.168 23.5294 28.664C24.1374 29.16 24.5534 29.824 24.7774 30.656C25.0014 31.472 25.1134 32.384 25.1134 33.392V39.536C25.1134 39.952 24.9774 40.304 24.7054 40.592C24.4334 40.864 24.0894 41 23.6734 41C23.2574 41 22.9134 40.864 22.6414 40.592C22.3694 40.304 22.2334 39.952 22.2334 39.536V33.392C22.2334 32.864 22.1694 32.392 22.0414 31.976C21.9134 31.544 21.6814 31.2 21.3454 30.944C21.0094 30.688 20.5294 30.56 19.9054 30.56C19.2974 30.56 18.7774 30.688 18.3454 30.944C17.9134 31.2 17.5854 31.544 17.3614 31.976C17.1534 32.392 17.0494 32.864 17.0494 33.392V39.536C17.0494 39.952 16.9134 40.304 16.6414 40.592C16.3694 40.864 16.0254 41 15.6094 41C15.1934 41 14.8494 40.864 14.5774 40.592C14.3054 40.304 14.1694 39.952 14.1694 39.536V24.704C14.1694 24.288 14.3054 23.944 14.5774 23.672C14.8494 23.384 15.1934 23.24 15.6094 23.24C16.0254 23.24 16.3694 23.384 16.6414 23.672C16.9134 23.944 17.0494 24.288 17.0494 24.704V30.656L16.6894 30.584C16.8334 30.312 17.0334 30.024 17.2894 29.72C17.5454 29.4 17.8574 29.104 18.2254 28.832C18.5934 28.56 19.0014 28.344 19.4494 28.184C19.8974 28.008 20.3854 27.92 20.9134 27.92ZM29.6719 41C29.2559 41 28.9119 40.864 28.6399 40.592C28.3679 40.304 28.2319 39.952 28.2319 39.536V29.624C28.2319 29.208 28.3679 28.864 28.6399 28.592C28.9119 28.304 29.2559 28.16 29.6719 28.16C30.0879 28.16 30.4319 28.304 30.7039 28.592C30.9759 28.864 31.1119 29.208 31.1119 29.624V31.88L30.9439 30.272C31.1199 29.888 31.3439 29.552 31.6159 29.264C31.9039 28.96 32.2239 28.712 32.5759 28.52C32.9279 28.312 33.3039 28.16 33.7039 28.064C34.1039 27.968 34.5039 27.92 34.9039 27.92C35.3839 27.92 35.7839 28.056 36.1039 28.328C36.4399 28.6 36.6079 28.92 36.6079 29.288C36.6079 29.816 36.4719 30.2 36.1999 30.44C35.9279 30.664 35.6319 30.776 35.3119 30.776C35.0079 30.776 34.7279 30.72 34.4719 30.608C34.2319 30.496 33.9519 30.44 33.6319 30.44C33.3439 30.44 33.0479 30.512 32.7439 30.656C32.4559 30.784 32.1839 30.992 31.9279 31.28C31.6879 31.568 31.4879 31.928 31.3279 32.36C31.1839 32.776 31.1119 33.272 31.1119 33.848V39.536C31.1119 39.952 30.9759 40.304 30.7039 40.592C30.4319 40.864 30.0879 41 29.6719 41ZM39.0941 44.216C38.8221 44.216 38.5421 44.104 38.2541 43.88C37.9661 43.656 37.8221 43.368 37.8221 43.016C37.8221 42.824 37.8701 42.632 37.9661 42.44L47.7101 22.496C47.8221 22.272 47.9741 22.096 48.1661 21.968C48.3581 21.84 48.5581 21.776 48.7661 21.776C49.0381 21.776 49.3101 21.888 49.5821 22.112C49.8701 22.32 50.0141 22.608 50.0141 22.976C50.0141 23.168 49.9661 23.36 49.8701 23.552L40.1501 43.496C40.0381 43.72 39.8861 43.896 39.6941 44.024C39.5181 44.152 39.3181 44.216 39.0941 44.216ZM53.2388 38.984C52.9188 38.984 52.6148 38.832 52.3268 38.528C52.0548 38.208 51.9188 37.88 51.9188 37.544C51.9188 37.368 51.9588 37.208 52.0388 37.064C52.1348 36.92 52.2708 36.792 52.4468 36.68L60.7748 31.856L60.9428 34.256L52.4708 29.192C52.2788 29.08 52.1428 28.944 52.0628 28.784C51.9828 28.608 51.9428 28.432 51.9428 28.256C51.9428 27.872 52.0788 27.536 52.3508 27.248C52.6228 26.944 52.8868 26.792 53.1428 26.792C53.3188 26.792 53.5028 26.848 53.6948 26.96C53.9028 27.056 54.1188 27.168 54.3428 27.296L62.1428 31.88C62.3348 31.992 62.4788 32.152 62.5748 32.36C62.6708 32.552 62.7188 32.76 62.7188 32.984C62.7188 33.208 62.6708 33.424 62.5748 33.632C62.4788 33.824 62.3348 33.976 62.1428 34.088L54.3428 38.576C54.1348 38.688 53.9428 38.784 53.7668 38.864C53.5908 38.944 53.4148 38.984 53.2388 38.984Z" fill="#5386E4"/>
</svg>
